/* XPM */
static char *_527446412292[] = {
/* columns rows colors chars-per-pixel */
"16 16 178 2 ",
"   c #113F5D",
".  c #273E5E",
"X  c #2E3F60",
"o  c #643E63",
"O  c #11415E",
"+  c #10425F",
"@  c #084662",
"#  c #094662",
"$  c #0A4662",
"%  c #0B4662",
"&  c #0A4663",
"*  c #0B4663",
"=  c #0B4763",
"-  c #0D4461",
";  c #0D4561",
":  c #0E4461",
">  c #0F4663",
",  c #104663",
"<  c #114663",
"1  c #134763",
"2  c #154663",
"3  c #174664",
"4  c #164764",
"5  c #1B4664",
"6  c #1D4664",
"7  c #1E4664",
"8  c #194B68",
"9  c #204664",
"0  c #214664",
"q  c #234664",
"w  c #224765",
"e  c #244765",
"r  c #274665",
"t  c #2B4765",
"y  c #2E4665",
"u  c #2D4766",
"i  c #32617C",
"p  c #4A4667",
"a  c #4B4667",
"s  c #5C4769",
"d  c #5D4769",
"f  c #405170",
"g  c #6B4569",
"h  c #6E4569",
"j  c #6B4A6D",
"k  c #744267",
"l  c #7B4066",
"z  c #7B466B",
"x  c #B73B66",
"c  c #DE3766",
"v  c #D43B69",
"b  c #D53B69",
"n  c #DD3B69",
"m  c #D93D6A",
"M  c #DA3E6B",
"N  c #DE3E6B",
"B  c #DC3F6C",
"V  c #DC3F6D",
"C  c #DE3E6C",
"Z  c #DE3F6C",
"A  c #E23564",
"S  c #E63767",
"D  c #EB3363",
"F  c #E03867",
"G  c #E33867",
"H  c #E13968",
"J  c #E23D6B",
"K  c #E63D6B",
"L  c #EB3D6C",
"P  c #82456B",
"I  c #80466B",
"U  c #A3446D",
"Y  c #A5456D",
"T  c #A7446D",
"R  c #AC436C",
"E  c #AF456E",
"W  c #B4456E",
"Q  c #B6446E",
"!  c #B9446E",
"~  c #BA446E",
"^  c #BC446E",
"/  c #BD446E",
"(  c #B54E76",
")  c #BD4B72",
"_  c #BB4F77",
"`  c #BF4D76",
"'  c #B7557C",
"]  c #BD537B",
"[  c #BE577E",
"{  c #C6416C",
"}  c #C2456F",
"|  c #C4446F",
" . c #C5446F",
".. c #C6456F",
"X. c #C9406C",
"o. c #CF406C",
"O. c #C8446E",
"+. c #D3436E",
"@. c #D7406C",
"#. c #D6436F",
"$. c #D7436F",
"%. c #DB406D",
"&. c #DA416E",
"*. c #DB416E",
"=. c #D9426F",
"-. c #DA426E",
";. c #DA436F",
":. c #DF416E",
">. c #DC426F",
",. c #DC436F",
"<. c #C44770",
"1. c #CF4470",
"2. c #C14B74",
"3. c #C54B75",
"4. c #C34C76",
"5. c #D14470",
"6. c #D34571",
"7. c #D94370",
"8. c #DB4370",
"9. c #DD4370",
"0. c #DE4370",
"q. c #DF4370",
"w. c #C4547C",
"e. c #E2416E",
"r. c #E44370",
"t. c #E54370",
"y. c #E04470",
"u. c #1F6D84",
"i. c #896787",
"p. c #986583",
"a. c #9F6285",
"s. c #9F6787",
"d. c #976C8B",
"f. c #996889",
"g. c #9E6D8D",
"h. c #867693",
"j. c #8A7492",
"k. c #957190",
"l. c #947693",
"z. c #967997",
"x. c #A16789",
"c. c #A06A8B",
"v. c #AB698C",
"b. c #AB6A8C",
"n. c #7D839E",
"m. c #7F8EA6",
"M. c #6F93A9",
"N. c #6995AB",
"B. c #65A5B7",
"V. c #69A1B2",
"C. c #64A9BB",
"Z. c #6CADBF",
"A. c #76A5B9",
"S. c #77A8BB",
"D. c #52B7C5",
"F. c #57B6C4",
"G. c #51BECB",
"H. c #3AD8DE",
"J. c #3FE3E8",
"K. c #3CEBEE",
"L. c #36F4F5",
"P. c #37F9F9",
"I. c #31FFFF",
"U. c #3CFFFE",
"Y. c #48CED4",
"T. c #48CED6",
"R. c #56CBD5",
"E. c #45D9DF",
"W. c #46DBE1",
"Q. c #42DCE2",
"!. c #49DBE1",
"~. c #4DD8E0",
"^. c #44E0E5",
"/. c #41E8EC",
"(. c #42E9EC",
"). c #51E8ED",
"_. c #8290A9",
"`. c None",
/* pixels */
"`.`.`.`.`.* > 5 5 > * `.`.`.`.`.",
"`.`.`.* 7 g U ! ! T k . > `.`.`.",
"`.`.* p } t.:.:.;.K w.D.i + `.`.",
"`.* p =.8.$.$.#.=.' Q.U.b.o * `.",
"`.0 ..9.$.$.#.#.N c.M.E.[ #.y `.",
"* h t.$.#.=.=.#.=.} V./.s.L P * ",
"> T :.=.F _ 2.=.N p.T.T.) e.Q 2 ",
"5 ^ :.4.k.!.^.N.m d.K.l.+.:.O.r ",
"7 / A m.I.W.n.i.{ A.Z.A =.;...e ",
"< E 6.G.F.( n c c.^.] =.#.:.W 4 ",
"* o b.j.v C A s.L._.c $.$.t.P @ ",
"`.X h.z.D v x.(.R.v ;.$.;.5.u `.",
"`.5 f C.g.B.P.E._ :.$.:.y.s = `.",
"`.`.  u.H.).S.3.K 9.y.5.s @ `.`.",
"`.`.`.O 8 j x X.} E z u @ `.`.`.",
"`.`.`.`.`.> 2 q 0 1 @ `.`.`.`.`."
};
