/* XPM */
static char *_61cf0e4613c4238bc9df347a376582f[] = {
/* columns rows colors chars-per-pixel */
"64 64 197 2 ",
"   c #153247",
".  c #15354B",
"X  c #18364C",
"o  c #15384C",
"O  c #19384D",
"+  c #1C3D50",
"@  c #223B51",
"#  c #2A3A52",
"$  c #353E56",
"%  c #3B3D56",
"&  c #383F58",
"*  c #413B58",
"=  c #4A3C5A",
"-  c #543E5E",
";  c #673E61",
":  c #683E62",
">  c #793F66",
",  c #1E4155",
"<  c #1F4857",
"1  c #224355",
"2  c #2E4054",
"3  c #204857",
"4  c #274559",
"5  c #2B4558",
"6  c #204A59",
"7  c #2C4E5D",
"8  c #314356",
"9  c #3B4056",
"0  c #344459",
"q  c #394259",
"w  c #304C5F",
"e  c #3A4A5D",
"r  c #26525E",
"t  c #34515F",
"y  c #3C4F63",
"u  c #2D5564",
"i  c #255A62",
"p  c #2C5B64",
"a  c #2B5C6C",
"s  c #355363",
"d  c #3D5363",
"f  c #325C66",
"g  c #355468",
"h  c #3B5569",
"j  c #345C6B",
"k  c #3D5B6C",
"l  c #276267",
"z  c #286167",
"x  c #2B6469",
"c  c #2B696C",
"v  c #34626A",
"b  c #38626A",
"n  c #346372",
"m  c #3C6374",
"M  c #356877",
"N  c #366C7B",
"B  c #3B6C7B",
"V  c #2E7472",
"C  c #2F7A76",
"Z  c #2F7D78",
"A  c #347674",
"S  c #3C7374",
"D  c #327A76",
"F  c #387877",
"G  c #36737F",
"H  c #3A707F",
"J  c #307D78",
"K  c #40445C",
"L  c #4B445D",
"P  c #434D5E",
"I  c #49485F",
"U  c #53445F",
"Y  c #5C435E",
"T  c #4E4560",
"R  c #434D63",
"E  c #4D4C63",
"W  c #5B4562",
"Q  c #534B62",
"!  c #5B4C65",
"~  c #435464",
"^  c #4C5266",
"/  c #445966",
"(  c #445269",
")  c #495269",
"_  c #445D6D",
"`  c #4B5B6A",
"'  c #535367",
"]  c #5C5067",
"[  c #545468",
"{  c #5C556A",
"}  c #555B6B",
"|  c #5B5C6E",
" . c #5E5F71",
".. c #644262",
"X. c #6A4465",
"o. c #644B66",
"O. c #6B4A67",
"+. c #634C68",
"@. c #6B4C69",
"#. c #704365",
"$. c #7A4067",
"%. c #754668",
"&. c #7C4368",
"*. c #704A69",
"=. c #7D4C6C",
"-. c #605167",
";. c #62546A",
":. c #6C546D",
">. c #63596E",
",. c #69586F",
"<. c #71546E",
"1. c #79536F",
"2. c #6E5770",
"3. c #665E73",
"4. c #6C5D73",
"5. c #755571",
"6. c #7C5673",
"7. c #735A73",
"8. c #7A5974",
"9. c #4E626E",
"0. c #52616E",
"q. c #416770",
"w. c #4B6670",
"e. c #456E74",
"r. c #4B6C74",
"t. c #556774",
"y. c #5B6473",
"u. c #526A75",
"i. c #5A6976",
"p. c #417174",
"a. c #497177",
"s. c #40717E",
"d. c #646174",
"f. c #696175",
"g. c #726277",
"h. c #86416A",
"j. c #88416A",
"k. c #854B6E",
"l. c #834E70",
"z. c #8D4E72",
"x. c #964570",
"c. c #9D4672",
"v. c #934B72",
"b. c #9A4972",
"n. c #835373",
"m. c #8A5173",
"M. c #885876",
"N. c #915175",
"B. c #A24572",
"V. c #AB4474",
"C. c #A24974",
"Z. c #B14374",
"A. c #347582",
"S. c #3B7583",
"D. c #3C7986",
"F. c #3C7D8A",
"G. c #407A85",
"H. c #417D8A",
"J. c #3E828E",
"K. c #3E8691",
"L. c #3C8E97",
"P. c #3E9299",
"I. c #41828E",
"U. c #428591",
"Y. c #428A95",
"T. c #448E99",
"R. c #45939C",
"E. c #4A939E",
"W. c #48989F",
"Q. c #4497A0",
"!. c #4997A1",
"~. c #4599A1",
"^. c #4A9CA5",
"/. c #4CA3AA",
"(. c #4CA8AE",
"). c #52A6AE",
"_. c #4FACB2",
"`. c #52ACB3",
"'. c #4DB3B8",
"]. c #54B1B6",
"[. c #55B5BA",
"{. c #5AB6BC",
"}. c #56BABF",
"|. c #59B9BF",
" X c #57BCC0",
".X c #5BBDC2",
"XX c #5DC2C6",
"oX c #5EC5C9",
"OX c #60C3C7",
"+X c #61C5C9",
"@X c #63CACD",
"#X c #65CED1",
"$X c #66D1D3",
"%X c #69D4D6",
"&X c #69D6D8",
"*X c #6BDBDD",
"=X c None",
/* pixels */
"=X=X=X=X=X=X=X=X=X=X=X=X=X=X=X=X=X=X=X=X=X=X=X=X=X=X=Xw w w w w w w w w w =X=X=X=X=X=X=X=X=X=X=X=X=X=X=X=X=X=X=X=X=X=X=X=X=X=X=X",
"=X=X=X=X=X=X=X=X=X=X=X=X=X=X=X=X=X=X=X=X=X=X=X. . . . X . . . . . . . . . O . . . =X=X=X=X=X=X=X=X=X=X=X=X=X=X=X=X=X=X=X=X=X=X=X",
"=X=X=X=X=X=X=X=X=X=X=X=X=X=X=X=X=X=X=X=XO O O O O O O O o O O O O O O o O O O O O O O O =X=X=X=X=X=X=X=X=X=X=X=X=X=X=X=X=X=X=X=X",
"=X=X=X=X=X=X=X=X=X=X=X=X=X=X=X=X=X=XO O O O O O O o o o o o o O O o . o o o O O O O O O O O =X=X=X=X=X=X=X=X=X=X=X=X=X=X=X=X=X=X",
"=X=X=X=X=X=X=X=X=X=X=X=X=X=X=X=XO O O O O . o o o @ & - W #.%.%.%.*.X.W T $ + . o o o O O O O O =X=X=X=X=X=X=X=X=X=X=X=X=X=X=X=X",
"=X=X=X=X=X=X=X=X=X=X=X=X=X=XO O O O O O o o # U &.x.B.C.C.c.b.b.b.b.v.b.v.N.l.@.I # o o o O O O O O =X=X=X=X=X=X=X=X=X=X=X=X=X=X",
"=X=X=X=X=X=X=X=X=X=X=X=X=XO O O O O o O * &.B.V.B.C.c.b.b.b.v.v.N.v.z.z.m.N.m.N.m.n.+.0 O . X O O O O =X=X=X=X=X=X=X=X=X=X=X=X=X",
"=X=X=X=X=X=X=X=X=X=X=X=XO O O O o o % h.B.V.B.c.c.c.b.b.b.b.v.N.v.N.z.z.m.m.l.n.n.n.M.n.@.q X . O O O O =X=X=X=X=X=X=X=X=X=X=X=X",
"=X=X=X=X=X=X=X=X=X=X=XO O O O o # > V.V.c.c.c.c.c.b.b.v.b.v.b.z.z.z.z.z.m.n.n.n.n.6.6.n.n.E u + X O O O O =X=X=X=X=X=X=X=X=X=X=X",
"=X=X=X=X=X=X=X=X=XO O O O o o = c.Z.B.B.c.B.c.c.b.b.v.b.v.x.z.v.N.m.N.l.m.l.n.n.n.n.n.@.y /.@X{.6 . O O O O O =X=X=X=X=X=X=X=X=X",
"=X=X=X=X=X=X=X=X=XO O O o . ; V.V.B.B.B.c.c.c.c.b.b.v.v.z.v.v.z.N.m.l.m.n.n.n.6.6.n.W H .X@X+X#XH.% O . O O O =X=X=X=X=X=X=X=X=X",
"=X=X=X=X=X=X=X=XO O O o O > Z.B.B.B.c.B.c.c.x.c.v.x.b.v.v.z.z.z.z.m.m.l.n.n.n.n.n.U D.@X@XOX+X#XT.-.[ O . O O O =X=X=X=X=X=X=X=X",
"=X=X=X=X=X=X=XO X X X X h.Z.B.B.B.B.c.c.c.b.b.b.b.v.v.v.z.z.z.z.l.m.l.n.n.n.n.6.T L.#X+XOXOXOX#XY.] g.[ O O O O O =X=X=X=X=X=X=X",
"=X=X=X=X=X=XO O O . X > Z.B.B.B.c.B.c.c.b.v.b.v.v.b.v.z.v.z.z.m.m.l.n.n.n.n.6.T R.$X+XOXOX+XOX#XH.] 4.f.^ . O O O O =X=X=X=X=X=X",
"=X=X=X=X=XO O o O o ; Z.B.B.B.B.B.c.c.c.b.b.b.v.v.v.z.z.m.m.N.m.n.m.n.n.6.n.@.D.@X@XoX@X@X+X+X@XS.{ f.3.f.d . O O O O =X=X=X=X=X",
"=X=X=X=X=XO O o o = Z.V.B.B.B.B.c.c.c.x.b.v.x.v.v.v.v.z.N.m.l.l.n.n.n.6.6.n.R [.@XoX#X`.].@X+X@Xm >.d.d.d.d.w . O O O =X=X=X=X=X",
"=X=X=X=XO O O o # c.V.B.B.B.c.c.c.c.x.b.b.b.v.N.x.N.z.z.m.l.m.n.n.n.n.6.6.O.F.#X@X@XE.4 ).@X+XXXk 3.d.d. .y.y.@ X X O O =X=X=X=X",
"=X=X=X=XO O O o > Z.B.B.B.B.B.c.c.x.v.b.b.v.v.z.z.z.m.z.m.l.n.n.n.6.6.6.n.W W.&X.XH L ~ XX+X@X|.h f.3.y.y.y.i./ X X O O =X=X=X=X",
"=X=X=XO O O o % V.B.B.B.c.B.c.c.c.b.b.v.v.v.v.z.z.m.N.m.m.n.n.n.6.6.6.6.8.<.k D.h -.:.B @X+X@X).~ f.y.y.y.y.t.i.5 o X O + =X=X=X",
"=X=X=XO O O X j.V.B.B.B.c.c.c.x.x.b.b.v.v.z.v.z.z.N.l.n.l.n.n.n.n.6.6.8.8.7.<.:.7.7.] I.#X+X#XW.^ d.d.y.y.y.i.i._ X O O X =X=X=X",
"=X=XO O O o % V.B.B.B.c.c.c.b.b.b.b.b.v.v.v.z.z.m.m.m.m.n.n.n.n.6.8.1.5.7.7.7.<.:.<.L ^.@X+X#XH E 3.y.y.y.t.t.t.u.5 . O O O =X=X",
"=X=XO O O o > V.B.B.c.c.b.b.b.v.v.v.v.v.z.z.z.z.m.m.l.n.n.n.6.6.6.6.8.7.7.8.] b s.B H |.@X+X@XU.N s y.y.t.t.t.u.u.k X O O O =X=X",
"=X=XO O O # B.B.B.c.c.c.b.b.b.v.v.v.v.z.z.z.z.z.m.l.n.n.6.6.6.6.8.8.5.7.7.7.Q '.&X#X#X+X+X+X@X#X&XG } i.t.t.u.u.u.r.1 . O O =X=X",
"=X. X O o - Z.B.B.c.c.b.c.x.b.b.v.v.z.z.z.z.m.l.l.n.n.n.n.6.6.8.8.5.8.7.7.g.E P.`.(.|.@X+X+X|.(.].M 0.t.t.u.u.w.u.a.t . O O . =X",
"=X. O O . h.B.c.c.c.b.b.v.b.v.v.v.v.z.z.m.z.m.m.n.n.n.6.6.6.6.8.5.7.7.4.7.4.3.E ' 9 Y.#X+X@XB P R / i.0.t.u.u.r.r.r.b X X O . =X",
"=X. O O @ x.B.B.c.c.b.b.b.v.v.x.v.z.z.z.z.m.m.n.n.n.n.6.1.8.8.5.7.7.7.7.4.;.] -.-.e [.@X@X).8 } i.i.t.u.u.w.r.r.r.a.q.+ X O . =X",
"=X. O o & B.c.c.b.b.b.b.v.v.v.v.z.z.z.z.m.m.#.X.6.M.6.6.6.8.8.5.7.7.7.4.,.k Y.I.I.W.@X+X@X`.I.G / i.t.u.r.r.r.r.r.e.e.1 . O   =X",
"w . o o - V.c.c.b.b.b.v.v.v.v.z.z.N.l.z.l.T K.T.R X.*.*.1.8.7.7.7.7.4.7.;.G.*X&X$X@XOXOX@X#X*X].d t.u.r.u.r.r.e.e.e.a.7 . O . _ ",
"w o O o ..B.b.b.b.b.b.v.v.z.z.z.z.z.m.z.W ~.$X$X`.Y.H.S._ U <.7.7.4.4.4.>.n ~.R.].@X+X@X`.T.W.F./ t.r.r.r.e.r.r.p.p.a.p X O . _ ",
"w X O o #.C.b.b.b.v.v.v.v.z.N.v.z.N.z.; N @X+X+X+X#X#X#XXX^.h :.g.7.4.4.4.{ Q 2 ).@X+X@Xj P ~ / r.u.u.r.r.r.e.e.a.p.p.f . X X _ ",
"w . O o &.C.b.b.v.v.v.v.v.v.k.U E W T J.oX+X+XOX+X+X+X@XoX@X[.h ,.4.3.3.d.f.[ D.#X+X#X^.d i.t.t.u.r.r.r.r.e.e.e.e.p.p.v . o   _ ",
"w . O o &.c.b.v.v.v.v.z.z.z.( (. X_.'.@X@XOX+X+X+X+X+X[./.a $XY.! f.3.3.d.d.d |.@X+X+Xn 0.t.u.u.u.r.r.r.r.e.p.e.e.S s.v O o   _ ",
"w . O o %.C.v.v.v.v.z.z.v.: T.%X+X@X@X+X+X+X+X@XoX#XU.q j $ !.^.Q f.d.d.d.' J.#X+X#X!.d i.u.r.u.r.r.r.e.e.e.e.e.S S S v X X . _ ",
"w o O o =.b.v.v.v.z.v.z.N.W /.@X+X+XOX+X+X+X@XY.g ).S.<.:.:.m J.] f.d.d.d.s .X+X+XoXj 0.u.u.u.r.r.r.r.e.e.e.p.S e.S S v X + . _ ",
"w . O o #.b.v.v.z.v.z.z.N.#.Y.@X+XOX+X+X+XOX&XY.W ^ d 7.7.4.) a { d.d.f.E Y.#X+X#XT.d u.u.u.w.r.r.r.e.e.e.S S S S S F p . o . _ ",
"w o O o W b.v.v.z.z.z.m.N.T ^.@XOX+XOX@XI.h U.L.Q 5.7.4.4.4.[ 4 d.d.d.| j oX+X+X.Xs u.t.r.r.r.r.e.e.e.e.e.q.S S S S F i X o   _ ",
"w . O o = b.v.v.z.z.z.z.X.K.@X+X+X#X#X{.K 1.+.E ,.7.4.4.4.3.f.3.d.y.d.R ^.@XoX#XJ./ t.t.r.r.r.r.e.e.e.S e.S S S S F F r X O   _ ",
"=XX O o $ v.z.z.z.z.m.l.k oX@X@X+X^.^. X^ 8.8.7.7.4.4.4.4.3.d.d.d.d.} M @X@X@X].s t.r.r.r.r.e.r.e.e.e.e.S S S S S F A 3 X X . =X",
"=X. O o @ z.N.z.z.m.z...W.@X_.@XoXy T A.) 8.7.7.4.4.4.4.3.d.d.f.d.d.y `.@X+X#XH ` u.r.r.r.r.e.e.e.e.S S S S S A A A A O O O   =X",
"=X. O O . @.v.z.m.n.m.) oX!.% H.'.) 6.o.2.7.7.4.4.4.4.f.3.d. .d d s I.#X+X@X/.t t.w.r.r.r.e.e.e.e.S e.S S S S S A A c X O o   =X",
"=X. O O . T N.m.m.m.=.S.#Xm =.+.y +.8.8.7.7.4.4.4.3.4.d.3.d.| j /..X+X+X+X+Xn 9.r.r.r.a.e.e.e.e.S S S S S S F A A F r . O O X =X",
"=X=XO O o # m.m.n.m.X.Q.[.T n.6.6.7.7.7.7.7.4.4.3.3.f.d.d.} ' j oX@X+X+X#XT.d u.r.r.r.r.e.e.e.S S S S S S F A F A V , X O O =X=X",
"=X=XO O o o o.N.n.n.W _.R...8.8.8.5.7.4.4.7.4.3.f.3.d.d.} n M ).@X+X+X@X|.s w.r.r.r.e.e.e.e.q.S q.S S S A A F V J x X X O O =X=X",
"=X=XO O O o & m.n.n.E  XU.@.8.8.7.7.7.7.7.4.4.3.d.d.d.d.{ H @X@X+X+X+X@XS./ r.r.e.r.e.e.e.p.p.S S S S A S A V D D 6 X X O O =X=X",
"=X=X=XO O o O @.M.n.) XX!.W 8.7.7.7.7.7.3.4.3.3.d.d.0.^ E H @X+X+X+X#X^.s u.r.r.r.e.e.e.e.S S S F S S V A V F D c X O O O =X=X=X",
"=X=X=XO O O o & n.n.) .X].^ 8.7.,.7.4.4.4.3.3.f.d.f./ D.S..X+X+XOX@X.Xp w.r.r.r.e.e.e.S e.S S S S S A A D F C C < X O O O =X=X=X",
"=X=X=X=XO O o o ! M.Q _.@Xm <.7.4.4.4.3.3.f.f.[ { f.e |.#X+XOX+X+X@XN _ u.r.e.e.e.e.e.e.S S S S S A A A D V Z l X O O O =X=X=X=X",
"=X=X=X=XO O O o @ 5.+.K.&X!.Q 7.7.4.4.4.f.f.[ N N e S.OX+X+X+X+X#XD.d r.a.a.r.e.e.e.S S S S S S A F A V V C V + X O O O =X=X=X=X",
"=X=X=X=X=XO O O . q 1.m @XoXh 2.f.4.4.[ ;.f.' U.#X`.@X+X+X+XoX#XY.t r.r.r.e.e.e.e.S S S S S F F A F A D C Z 6 X X O O =X=X=X=X=X",
"=X=X=X=X=XO O O O o Q ! T.%X~.I 7.f.>.n H P e T.#X@X+XOX+X+X#X^.t r.r.r.e.e.e.e.e.e.S S S S S A A V V C J i X O O O O =X=X=X=X=X",
"=X=X=X=X=X=XO O O o O Q _ .X#XS.Q ,.L U.%XY./.@XOX+X+X+X+X#X/.t w.r.r.e.e.e.e.S S S S S V A A A V D D Z z X X O O O =X=X=X=X=X=X",
"=X=X=X=X=X=X=XO O O o + & R.$XoXD.m U.{.@X#X@X+X+X+X+X+X@XT.t r.r.r.e.e.e.e.e.S S S S F S A A A V D J l O O O O O =X=X=X=X=X=X=X",
"=X=X=X=X=X=X=X=XO O O o O @ ).$X@X@X#X+X+XOX+X+XOX+X#XXXS.t r.r.r.e.e.e.e.e.S e.S S S S F A A A D J z O O O O O =X=X=X=X=X=X=X=X",
"=X=X=X=X=X=X=X=X=XO O O O X @ `.#X+X+X+X+X+X+X@X#X+X^.f / u.r.r.r.e.e.e.S e.S S S S S A A V V J J i X X O O O =X=X=X=X=X=X=X=X=X",
"=X=X=X=X=X=X=X=X=XO O O O O X , ^.@X#X@X@X#X@X|.E.n d w.r.r.r.r.e.e.p.p.q.S S S S S A A A D D V 6 X X O O O =X=X=X=X=X=X=X=X=X=X",
"=X=X=X=X=X=X=X=X=X=X=XO O O O o X a I.R.T.I.N g ~ 9.u.r.r.r.r.e.e.e.p.p.S S S A A A A A D D z + X O O O O =X=X=X=X=X=X=X=X=X=X=X",
"=X=X=X=X=X=X=X=X=X=X=X=XO O O O X X X q ^ ` 0.t.u.t.t.r.r.e.a.p.e.e.e.S S S S S A A F F c 3 X . O O O O =X=X=X=X=X=X=X=X=X=X=X=X",
"=X=X=X=X=X=X=X=X=X=X=X=X=XO O O O O X + 5 ` t.u.u.r.a.r.a.r.e.p.e.S p.S S S A A A A l 6 O X O O O O O =X=X=X=X=X=X=X=X=X=X=X=X=X",
"=X=X=X=X=X=X=X=X=X=X=X=X=X=XO O O O O O o o @ t _ e.r.a.a.a.p.a.p.p.p.F S F S z r , X . O O O O O O =X=X=X=X=X=X=X=X=X=X=X=X=X=X",
"=X=X=X=X=X=X=X=X=X=X=X=X=X=X=X=XO O O O O O O . X + 1 7 s s k j v v v p r 1 + X X X O O O O O O =X=X=X=X=X=X=X=X=X=X=X=X=X=X=X=X",
"=X=X=X=X=X=X=X=X=X=X=X=X=X=X=X=X=X=XO O O O O O X X X . X X X X X X . . X X X O O O O O O O =X=X=X=X=X=X=X=X=X=X=X=X=X=X=X=X=X=X",
"=X=X=X=X=X=X=X=X=X=X=X=X=X=X=X=X=X=X=X=XO O O O O O O O o o X o O O O o X X O O O O O O =X=X=X=X=X=X=X=X=X=X=X=X=X=X=X=X=X=X=X=X",
"=X=X=X=X=X=X=X=X=X=X=X=X=X=X=X=X=X=X=X=X=X=X=X.       . . .   .   o .     . . .   =X=X=X=X=X=X=X=X=X=X=X=X=X=X=X=X=X=X=X=X=X=X=X",
"=X=X=X=X=X=X=X=X=X=X=X=X=X=X=X=X=X=X=X=X=X=X=X=X=X=X=X_ _ _ _ _ _ _ _ _ _ =X=X=X=X=X=X=X=X=X=X=X=X=X=X=X=X=X=X=X=X=X=X=X=X=X=X=X"
};
