/* XPM */
static char *_527446379774[] = {
/* columns rows colors chars-per-pixel */
"64 64 202 2 ",
"   c #0D3E5C",
".  c #123D5B",
"X  c #67395A",
"o  c #6E3F65",
"O  c #0B4662",
"+  c #0E4864",
"@  c #154663",
"#  c #1C4664",
"$  c #164864",
"%  c #1C4865",
"&  c #174D69",
"*  c #14526D",
"=  c #1D5E78",
"-  c #244665",
";  c #2A4665",
":  c #244966",
">  c #2C4967",
",  c #294C69",
"<  c #334666",
"1  c #3B4767",
"2  c #374C6A",
"3  c #245873",
"4  c #385A76",
"5  c #1D627B",
"6  c #434667",
"7  c #464768",
"8  c #4B4768",
"9  c #474A6A",
"0  c #554669",
"q  c #5C4669",
"w  c #574B6B",
"e  c #565371",
"r  c #5C5D7C",
"t  c #5B5475",
"y  c #64466A",
"u  c #6D466A",
"i  c #664B6D",
"p  c #72456B",
"a  c #7A456B",
"s  c #7E4A6E",
"d  c #764668",
"f  c #6C546E",
"g  c #7A566F",
"h  c #7A4D71",
"j  c #6D5D7B",
"k  c #665677",
"l  c #735275",
"z  c #715A7B",
"x  c #7C5578",
"c  c #4E617F",
"v  c #56647C",
"b  c #64607B",
"n  c #993359",
"m  c #A0315D",
"M  c #BB315F",
"N  c #8B3D66",
"B  c #9E3D67",
"V  c #9B3F69",
"C  c #963B65",
"Z  c #A43D66",
"A  c #AC3B65",
"S  c #A43F69",
"D  c #AC3E68",
"F  c #AE3460",
"G  c #B93762",
"H  c #B43B65",
"J  c #BC3965",
"K  c #B83965",
"L  c #CC305F",
"P  c #E32D5D",
"I  c #C63966",
"U  c #CD3966",
"Y  c #CC3D6A",
"T  c #C73865",
"R  c #D33967",
"E  c #D33C6A",
"W  c #DC3C6A",
"Q  c #DA3564",
"!  c #E33D6B",
"~  c #E93D6C",
"^  c #E33464",
"/  c #85456C",
"(  c #8B466C",
")  c #854B6C",
"_  c #8B496F",
"`  c #8C4363",
"'  c #94456B",
"]  c #9B446C",
"[  c #924B6A",
"{  c #854C70",
"}  c #8C4B71",
"|  c #934B71",
" . c #9C4C71",
".. c #815477",
"X. c #A3446D",
"o. c #AB446D",
"O. c #B3456E",
"+. c #BC446E",
"@. c #A84971",
"#. c #B44770",
"$. c #B74972",
"%. c #C3446F",
"&. c #CC416C",
"*. c #D6436F",
"=. c #DB436F",
"-. c #C34670",
";. c #CB4570",
":. c #C44871",
">. c #CA4972",
",. c #D44570",
"<. c #DB4470",
"1. c #E1426F",
"2. c #EA416F",
"3. c #E24370",
"4. c #2E6982",
"5. c #3E728B",
"6. c #387E94",
"7. c #24748A",
"8. c #4D6C84",
"9. c #446E89",
"0. c #456A84",
"q. c #5C6482",
"w. c #5C6986",
"e. c #536B84",
"r. c #45768E",
"t. c #52738E",
"y. c #5C728A",
"u. c #487A93",
"i. c #497A93",
"p. c #5C7791",
"a. c #517891",
"s. c #626281",
"d. c #607084",
"f. c #198497",
"g. c #298798",
"h. c #35899D",
"j. c #398698",
"k. c #358EA1",
"l. c #2B91A3",
"z. c #339BAB",
"x. c #3C9CAE",
"c. c #3394A6",
"v. c #39A0AE",
"b. c #2BABB5",
"n. c #29A3B1",
"m. c #33A3B3",
"M. c #38AAB6",
"N. c #33ACB9",
"B. c #3CABBA",
"V. c #3BA5B5",
"C. c #27B3BD",
"Z. c #36B2BD",
"A. c #448198",
"S. c #418B9C",
"D. c #4A8497",
"F. c #488EA3",
"G. c #4296A9",
"H. c #409FB0",
"J. c #42A8B7",
"K. c #2DB9C4",
"L. c #2AB5C0",
"P. c #34BBC4",
"I. c #34BFC9",
"U. c #36B5C2",
"Y. c #44B7C4",
"T. c #2DC4CB",
"R. c #25C0C9",
"E. c #33C4CD",
"W. c #3AC1CB",
"Q. c #35CACE",
"!. c #33CBD3",
"~. c #3ACDD3",
"^. c #28D3D7",
"/. c #33D1D7",
"(. c #35D5DB",
"). c #3CD2D9",
"_. c #33DADF",
"`. c #3FD8DE",
"'. c #35DDE1",
"]. c #3EDDE3",
"[. c #35E1E5",
"{. c #3AE3E5",
"}. c #36E7EA",
"|. c #37EAEC",
" X c #39ECEE",
".X c #3CEEF0",
"XX c #3CF2F3",
"oX c #35FCFB",
"OX c #3FFAFB",
"+X c #30F7F7",
"@X c #40DCDF",
"#X c #41DCE2",
"$X c #41E2E6",
"%X c #44EAED",
"&X c #44E6EA",
"*X c #42EFF2",
"=X c #47F2F4",
"-X c #48F4F6",
";X c #48F7F8",
":X c #44FCFC",
">X c #49FBFC",
",X c None",
/* pixels */
",X,X,X,X,X,X,X,X,X,X,X,X,X,X,X,X,X,X,X,X,X,X,X,X,X,X,X@ @ @ @ $ $ $ $ @ @ ,X,X,X,X,X,X,X,X,X,X,X,X,X,X,X,X,X,X,X,X,X,X,X,X,X,X,X",
",X,X,X,X,X,X,X,X,X,X,X,X,X,X,X,X,X,X,X,X,X,X,X@ @ @ @ @ @ @ @ @ @ $ @ @ @ @ $ $ @ ,X,X,X,X,X,X,X,X,X,X,X,X,X,X,X,X,X,X,X,X,X,X,X",
",X,X,X,X,X,X,X,X,X,X,X,X,X,X,X,X,X,X,X,X@ @ @ @ @ @ @ @ @ @ @ @ @ @ @ @ @ @ @ @ @ @ @ @ ,X,X,X,X,X,X,X,X,X,X,X,X,X,X,X,X,X,X,X,X",
",X,X,X,X,X,X,X,X,X,X,X,X,X,X,X,X,X,X@ @ @ @ @ @ @ @ @ + O O O + O O O O O O @ @ @ @ @ @ @ @ ,X,X,X,X,X,X,X,X,X,X,X,X,X,X,X,X,X,X",
",X,X,X,X,X,X,X,X,X,X,X,X,X,X,X,X@ @ @ @ @ @ @ O O @ < 0 p ( ' ] ] ] ( a y 1 - + O + @ @ @ @ @ @ ,X,X,X,X,X,X,X,X,X,X,X,X,X,X,X,X",
",X,X,X,X,X,X,X,X,X,X,X,X,X,X,X@ @ @ @ @ O O - q ' %.,.<.3.3.3.3.3.<.3.3.3.<.-.X.u > + O @ $ @ @ @ @ ,X,X,X,X,X,X,X,X,X,X,X,X,X,X",
",X,X,X,X,X,X,X,X,X,X,X,X,X@ @ @ @ @ + O 1 ( ;.3.3.=.=.*.*.*.*.*.,.*.*.*.*.=.=.=.3.,.X.8 @ O @ @ @ @ @ ,X,X,X,X,X,X,X,X,X,X,X,X,X",
",X,X,X,X,X,X,X,X,X,X,X,X@ @ @ @ O O 1 ] <.3.=.*.*.*.*.*.*.*.*.*.*.*.*.*.*.*.*.*.<.,.3.<.O.y . @ @ @ @ @ ,X,X,X,X,X,X,X,X,X,X,X,X",
",X,X,X,X,X,X,X,X,X,X,X@ @ @ @ O # / <.3.*.*.*.*.*.,.,.<.*.*.*.*.*.*.*.*.*.*.*.*.*.*.*.*.~ o.4 * . @ @ @ @ @ ,X,X,X,X,X,X,X,X,X,X",
",X,X,X,X,X,X,X,X,X,X@ @ @ @ O 7 %.3.*.*.*.*.,.*.*.<.,.E *.*.*.*.*.*.*.*.*.*.*.*.*.*.<.E a N.=X%X7.  @ @ @ @ @ ,X,X,X,X,X,X,X,X,X",
",X,X,X,X,X,X,X,X,X@ @ @ @ O u <.=.*.*.*.*.*.*.*.*.*.*.*.*.*.*.*.*.*.*.*.*.*.*.<.*.1.Y c /.:X;X>XW.o ; + @ @ @ @ ,X,X,X,X,X,X,X,X",
",X,X,X,X,X,X,X,X@ @ @ @ + / 3.*.*.*.*.*.*.*.*.*.*.*.*.*.*.*.*.*.*.*.*.*.*.*.*.*.1.J 9.|.>X=X=X;X'.] %.; + @ @ @ @ ,X,X,X,X,X,X,X",
",X,X,X,X,X,X,X@ @ @ @ O ( 3.=.*.<.,.,.*.*.*.*.*.*.*.*.*.*.*.*.*.*.*.,.*.*.*.,.1.A h.XX;X-X-X=X;X/.( 2.%.< + @ @ @ ,X,X,X,X,X,X,X",
",X,X,X,X,X,X@ @ @ @ O ( 3.=.*.*.E ,.<.*.*.*.*.*.*.*.*.*.*.*.*.*.*.*.*.*.*.*.<.D l.OX-X=X=X=X=X>X!.X.1.1.-.; + @ @ @ ,X,X,X,X,X,X",
",X,X,X,X,X@ @ @ @ O u 3.*.*.*.*.*.*.*.*.*.*.*.*.,.<.*.*.*.*.*.*.*.*.*.*.*.*.W 9.OX-X=X=X-X=X=X;XP.H <.*.1.+.# + @ @ @ ,X,X,X,X,X",
",X,X,X,X,X@ @ @ O 8 <.=.*.*.*.*.*.*.*.*.*.*.=.,.,.E *.*.*.*.*.*.*.*.*.*.*.1.C T.>X=X;X=X@X-X=X>XV.I =.*.*.3.] @ @ @ @ ,X,X,X,X,X",
",X,X,X,X@ @ @ @ - -.<.=.*.*.*.*.*.*.E ,.<.=.*.*.*.*.*.*.*.*.*.*.*.*.*.*.=.E r.OX-X:X{.4.N.>X=X>XF.R ,.,.*.*.1.y O @ @ @ ,X,X,X,X",
",X,X,X,X@ @ @ O ( 3.,.,.*.*.*.*.*.*.*.*.,.,.*.*.*.*.*.*.*.*.*.*.*.*.*.*.=.J m.>X:XK.s ` (.-X=X:Xa.W =.*.*.*.=.>.- + @ @ @ ,X,X,X",
",X,X,X@ @ @ O 6 <.<.*.*.*.*.*.*.*.*.*.*.*.*.*.*.*.*.*.*.*.*.*.*.*.*.*.*.=.*.b N.A.V ~ f  X-X-XXXs.W *.*.*.*.*.1.' O @ @ @ ,X,X,X",
",X,X,X@ @ @ + X.3.E *.*.*.*.*.*.*.*.*.*.*.*.*.*.*.*.*.*.*.*.*.*.*.*.*.*.*.=.&.L R =.W a.:X=X-X'.} ! *.*.*.*.*.*.*.6 + @ @ @ ,X,X",
",X,X@ @ @ + 7 <.*.*.*.*.,.,.E ,.*.*.*.*.*.*.*.*.*.*.*.*.*.*.*.*.*.*.*.*.*.*.*.1.! 2.L x.>X=X>XE.H ! ,.*.*.*.*.*.3.] + @ @ @ ,X,X",
",X,X@ @ @ O ] 3.*.*.*.*.=.,.<.*.*.*.*.*.*.*.,.*.*.*.*.*.*.*.*.*.*.*.*.*.*.=.&.b y.v v ~.;X=X>XW.v j *.=.*.*.*.*.*.;.; + @ @ ,X,X",
",X,X@ @ @ ; ,.<.*.*.*.*.*.*.*.*.E ,.*.*.*.=.E <.*.*.*.*.*.*.*.*.*.*.*.*.*.=.M T.:XOX:X;X=X=X-X;X:XT.M <.*.*.*.*.*.3.p O @ @ @ ,X",
",X@ @ @ O y 3.*.*.*.*.*.*.*.*.*.,.<.*.*.*.,.,.,.*.*.,.*.*.*.*.*.*.*.*.*.*.=.H b. X{.%X=X=X=X-X{. XM.T =.*.*.*.*.*.=.+.@ @ @ @ ,X",
",X@ @ @ O X.! ,.*.*.*.*.,.,.=.*.,.*.*.*.*.*.*.*.*.*.*.*.*.*.*.*.*.*.*.*.*.*.&.) ) d h.>X=X>XM.` [ ' *.*.*.*.*.*.*.*.<.1 + @ @ ,X",
",X@ @ @ - ;.<.,.*.*.,.*.<.,.*.*.=.*.*.*.*.=.=.<.*.*.*.*.*.<.*.*.*.*.*.*.*.*.R Q Q n E.;X-XXXe P 2.=.*.*.*.*.*.*.*.*.<.0 O @ @ ,X",
",X@ @ + 7 <.*.*.*.*.W ,.*.E ,.,.*.*.*.*.,.=.Y J W <.*.*.,.,.<.E *.*.*.*.,.f h.S.S.v.=X-X-X$Xj.D.' =.*.*.*.*.*.*.*.*.3.( O @ @ @ ",
"@ @ @ O y 3.*.*.*.=.,.,.*.<.,.<.*.*.*.*.3.( h.m.t I U R ! <.,.,.*.*.*.*.=.v :X>X:X>X=X-X-X>X>XoXg ! *.*.*.*.*.*.*.*.3.X.+ @ @ @ ",
"@ @ @ O / <.*.*.*.*.E <.,.,.,.E *.*.,.3.Z n.:X>X(.z.S.u.s.Z E <.*.*.*.=.=.v Q.Q.@X-X-X-X%XQ./.T.) 1.*.*.*.*.*.*.*.*.=.-.@ @ @ @ ",
"@ @ @ O ' 3.*.*.*.*.,.*.*.<.<.<.3.W ! I 0.=X-X=X>X>X:X:X.XK.r Y =.*.*.*.=.O.Z X C.>X-X>Xv.n A M &.*.*.*.*.*.*.,.*.*.=.&.; @ @ @ ",
"$ @ @ + X.3.*.*.*.*.*.*.*.<.,.C / ' N j.}.;X=X=X=X=X=X;X-X>X|.q.*.*.*.*.*.=.1.v XX-X-X Xg 3.<.=.*.*.*.*.*.*.*.*.*.*.*.,.< + @ @ ",
"$ @ @ @ o.<.*.*.*.*.*.*.*.W k K.'.!.E.:X;X=X=X=X=X=X;X.X].g.:XI.X.=.*.*.*.1.o.W.>X=X>Xv.&.=.*.*.*.*.*.*.*.*.*.*.*.*.*.*.< @ @ @ ",
"$ @ @ O o.<.*.*.,.*.*.<.<.J m.>X;X;X>X=X=X=X=X;X:X>XW.t 6.0 B.[.` =.*.*.*.W t.:X-X;X|...! ,.*.*.*.*.*.*.*.*.*.*.*.*.=.:.: @ @ @ ",
"@ @ @ + X.3.*.*.*.*.*.,.<.Z E.>X=X=X=X=X=X=X;X~.6.'.V.T Y *.s.K.] =.*.*.1.] !.;X-X:XG.R =.,.*.*.*.*.*.*.*.*.*.*.*.*.=.>.: @ @ @ ",
"@ @ @ O ] 3.,.*.*.*.<.,.=.J M.:X=X=X=X=X;XOX:XZ.m l 0.E =.1.| f.O.=.*.*.R D.:X=X;X'.| 1.*.*.*.*.*.*.*.*.*.,.*.*.*.*.=.:.$ @ @ @ ",
"@ @ @ O ( 3.,.<.*.*.E ,.3.C U.;X=X=X=X;XW.a.Y.^.{ 2.E ,.=.=.O.3 &.*.*.1._ _.;X=X:XD.R *.*.*.*.*.*.*.*.*.*.*.*.*.*.*.=.#.$ @ @ @ ",
"@ @ @ O u 3.,.,.*.*.*.=.J c.:X=X=X;X>X.Xz ^ J l #.=.*.*.*.*.*.+.*.*.=.T H.>X-X;X/.X.=.*.*.*.*.*.*.*.*.*.*.*.*.*.*.*.1. .+ @ @ @ ",
"@ @ @ @ 8 3.<.E *.*.*.! r .X;X=X;X#X(.XXx ! <.3.=.*.*.*.*.*.*.=.*.=.! z  X-X=X:Xy.W =.*.*.*.*.*.*.*.*.*.*.*.*.*.*.*.3.s O @ @ @ ",
",X@ @ @ ; ;.<.<.,.W =.H N.>X.X;X:X8.p L.k =.*.*.*.*.*.*.*.*.,.<.*.2.H U.>X=X>XP.D 1.*.*.*.*.*.*.*.*.*.*.*.*.*.*.*.*.3.w O @ @ @ ",
",X@ @ @ @ o.=.,.,.,.! l |.).e N.+Xj ! ] %.=.*.*.*.*.*.*.=.,.,.@.D ( i.;X-X-XXXb W *.*.*.*.*.*.*.*.*.*.*.*.*.*.*.*.=.;.> @ @ @ ,X",
",X@ @ @ O a 3.*.,.W E u.:XF.Q S 9.| ! <.<.*.*.*.*.*.*.*.*.*.! s.C.'.*X-X=X:XV.I <.*.*.*.*.*.*.*.*.*.*.*.*.*.*.*.*.=.@.@ @ @ @ ,X",
",X,X@ @ + 1 <.*.,.<.J N.XXk ! =.W W ,.<.,.<.*.*.*.*.*.*.*.*.^ h |.>X-X=X;X[.} ! *.*.*.*.*.*.*.*.*.*.*.*.*.*.*.,.*.3.i O @ @ @ ,X",
",X,X@ @ @ $ o.3.,.3.V /.E.A <.=.,.,.W ,.<.,.*.*.*.*.,.,.*.q.e.B.>X=X=X=X:Xu.R *.*.*.*.*.*.*.*.*.*.*.*.*.*.*.*.*.=.,.> + @ @ ,X,X",
",X,X@ @ @ O q 3.,.! ) }.B.J <.,.,.,.,.,.,.,.E *.*.*.*.<.W y.oX=X-X=X=X>XT.V 1.*.*.*.*.*.*.*.*.*.*.*.*.*.*.*.*.*.3._ O @ @ @ ,X,X",
",X,X,X@ @ @ @ +.<.3.l .XI.H =.*.*.*.*.*.*.*.*.*.*.*.*.R Q q.XX;X=X=X;X Xr W =.*.*.*.*.*.*.*.*.*.*.*.*.*.*.*.*.=.<.2 + @ @ @ ,X,X",
",X,X,X@ @ @ + 0 3.! z .X'.h ! *.*.*.*.*.*.*.*.=.=.<.X.j.t.).;X=X=X-X:Xk.I <.*.*.*.*.*.*.,.*.*.*.*.*.*.*.*.*.*.3._ O @ @ @ ,X,X,X",
",X,X,X,X@ @ @ + o.2.) '.:Xt.W *.*.*.*.*.,.,.<.Y E 2.Z _.:X;X=X=X=X>XP.S 3.*.*.*.*.*.*.*.=.*.*.*.*.*.*.*.*.*.<.>.: @ @ @ @ ,X,X,X",
",X,X,X,X@ @ @ + < <.H Z.>XU.A =.*.*.*.=.<.,.Y 5.y.A q.{.;X=X=X=X>X!._ ! ,.*.*.*.*.*.*.*.*.*.*.*.*.*.*.*.,.<.3.q O @ @ @ ,X,X,X,X",
",X,X,X,X,X@ @ @ O p ! r.:XXXs.! ,.<.,.Y E 3.Y x.OXI.*X;X=X=X=X;X'.l ! *.*.*.*.*.*.*.*.*.*.*.*.*.*.*.*.*.<.3. .+ @ @ @ @ ,X,X,X,X",
",X,X,X,X,X@ @ @ @ + o.X.E.>XP.B ! ,.W 0.r.D F c.:X>X=X=X=X=X;XXXs.W *.*.*.*.*.*.*.*.*.*.*.*.*.*.*.*.*.*.<.$.% + @ @ @ ,X,X,X,X,X",
",X,X,X,X,X,X@ @ @ + # J w.:X;Xh.J ~ G c.OXz.B.*X=X=X=X=X=X;XXXt.U =.*.*.*.*.*.*.*.*.*.*.*.*.*.*.,.<.*.W >.2 + $ @ @ ,X,X,X,X,X,X",
",X,X,X,X,X,X,X@ @ @ + < y I.>X.X6.r j.~.>X:X:X=X=X=X=X=X:X'.w.R =.*.*.*.*.*.*.*.*.*.*.*.*.*.*.*.*.,.3.>.1 O @ @ @ @ ,X,X,X,X,X,X",
",X,X,X,X,X,X,X,X@ @ @ @ # 3 $X>X;XXX:X;X=X=X=X=X=X=X;X:XT.k R <.*.*.*.*.,.*.*.*.*.*.*.*.*.*.*.*.*.! >.2 O @ @ @ @ ,X,X,X,X,X,X,X",
",X,X,X,X,X,X,X,X@ @ @ @ @ . = &X>X;X=X=X=X=X=X*X;X>X|.F.a =.=.*.*.*.*.*.*.*.*.*.*.*.*.*.,.<.*.*.3.$.> O @ @ @ @ ,X,X,X,X,X,X,X,X",
",X,X,X,X,X,X,X,X,X@ $ @ @ $ . 5 #X>X>X;X-X>X>X:X[.H.x T 3.=.*.*.*.*.*.*.*.*.<.,.,.*.*.*.,.,.=.3.| # + @ @ @ @ ,X,X,X,X,X,X,X,X,X",
",X,X,X,X,X,X,X,X,X,X@ @ @ @ @ . & l.W.).(.W.J.p.} T ! =.,.*.*.*.*.*.*.*.*.*.*.,.W *.*.*.W 3.:.w O + @ @ @ @ ,X,X,X,X,X,X,X,X,X,X",
",X,X,X,X,X,X,X,X,X,X,X,X@ @ @ @ @ . @ f D D T W 1.=.,.,.*.*.*.*.*.*.*.*.*.*.*.*.,.*.=.3.,.{ # O @ @ @ @ @ ,X,X,X,X,X,X,X,X,X,X,X",
",X,X,X,X,X,X,X,X,X,X,X,X,X@ @ @ @ @ @ ; / ,.3.<.=.*.=.,.*.*.*.*.*.*.*.,.*.*.=.=.1.<.:.s > O @ @ @ @ @ @ ,X,X,X,X,X,X,X,X,X,X,X,X",
",X,X,X,X,X,X,X,X,X,X,X,X,X,X@ @ @ @ @ @ O - q X.-.<.! 3.=.=.<.<.=.=.=.3.<.3.<.-.| w : O + @ @ @ @ @ ,X,X,X,X,X,X,X,X,X,X,X,X,X,X",
",X,X,X,X,X,X,X,X,X,X,X,X,X,X,X,X@ @ @ @ @ + O O # 6 u ' O.%.-.:.-.-.+. .{ i 6 % O O @ @ @ @ @ @ @ ,X,X,X,X,X,X,X,X,X,X,X,X,X,X,X",
",X,X,X,X,X,X,X,X,X,X,X,X,X,X,X,X,X,X@ @ @ @ @ @ @ O O O @ @ # # # $ $ $ + O O + @ @ @ @ $ @ @ ,X,X,X,X,X,X,X,X,X,X,X,X,X,X,X,X,X",
",X,X,X,X,X,X,X,X,X,X,X,X,X,X,X,X,X,X,X,X@ @ @ @ @ @ @ @ @ @ @ @ @ @ @ @ $ $ @ @ $ @ @ @ @ ,X,X,X,X,X,X,X,X,X,X,X,X,X,X,X,X,X,X,X",
",X,X,X,X,X,X,X,X,X,X,X,X,X,X,X,X,X,X,X,X,X,X@ @ @ @ @ @ @ @ @ @ @ @ @ @ @ @ @ @ @ @ ,X,X,X,X,X,X,X,X,X,X,X,X,X,X,X,X,X,X,X,X,X,X",
",X,X,X,X,X,X,X,X,X,X,X,X,X,X,X,X,X,X,X,X,X,X,X,X,X,X@ @ @ $ $ $ $ @ @ @ @ @ ,X,X,X,X,X,X,X,X,X,X,X,X,X,X,X,X,X,X,X,X,X,X,X,X,X,X"
};
