/* XPM */
static char *_36b699447f74742cb4bea851f85f47b[] = {
/* columns rows colors chars-per-pixel */
"16 16 193 2 ",
"   c #153349",
".  c #163349",
"X  c #15354B",
"o  c #17344B",
"O  c #16354B",
"+  c #15364B",
"@  c #12374C",
"#  c #15364C",
"$  c #18354C",
"%  c #1E354C",
"&  c #12384C",
"*  c #173B4F",
"=  c #163C4F",
"-  c #1A394E",
";  c #173B50",
":  c #153C50",
">  c #1C3B50",
",  c #193C50",
"<  c #1B3C51",
"1  c #1B3D51",
"2  c #1C3C51",
"3  c #1F3E53",
"4  c #23364E",
"5  c #243950",
"6  c #203D53",
"7  c #213D53",
"8  c #233D53",
"9  c #243D53",
"0  c #233D54",
"q  c #223F55",
"w  c #443C59",
"e  c #593E5F",
"r  c #5A3E5F",
"t  c #1F4C5A",
"y  c #214055",
"u  c #224054",
"i  c #244357",
"p  c #2E465C",
"a  c #314257",
"s  c #304A5D",
"d  c #314F5F",
"f  c #23555F",
"g  c #24545F",
"h  c #2B4E61",
"j  c #275567",
"k  c #3E5866",
"l  c #3B5F6A",
"z  c #2E666B",
"x  c #30656B",
"c  c #3F666E",
"v  c #366A6F",
"b  c #39696F",
"n  c #3B686F",
"m  c #2F7372",
"M  c #307272",
"N  c #3D7376",
"B  c #3E7376",
"V  c #3D7677",
"C  c #317A76",
"Z  c #377877",
"A  c #387877",
"S  c #387B78",
"D  c #3A7A78",
"F  c #4B425D",
"G  c #50405D",
"H  c #5D5B6F",
"J  c #6E4A6A",
"K  c #744769",
"L  c #7F426A",
"P  c #7D446A",
"I  c #635A6F",
"U  c #64596E",
"Y  c #675A6F",
"T  c #73526E",
"R  c #73546E",
"E  c #675972",
"W  c #6B5970",
"Q  c #685B72",
"!  c #6F5971",
"~  c #795672",
"^  c #745972",
"/  c #765975",
"(  c #715C74",
")  c #7B5874",
"_  c #7A5877",
"`  c #4F636E",
"'  c #486770",
"]  c #4F6572",
"[  c #476A74",
"{  c #456F74",
"}  c #476F75",
"|  c #4A6871",
" . c #496B74",
".. c #4E6A74",
"X. c #4C6A76",
"o. c #4A6D75",
"O. c #496E76",
"+. c #576171",
"@. c #516E76",
"#. c #596A76",
"$. c #556578",
"%. c #5F6779",
"&. c #516D7B",
"*. c #596C7E",
"=. c #5F6D7F",
"-. c #437176",
";. c #437377",
":. c #447076",
">. c #497076",
",. c #407578",
"<. c #52707F",
"1. c #71627C",
"2. c #76637E",
"3. c #86476E",
"4. c #89466E",
"5. c #814A6E",
"6. c #85486E",
"7. c #96476F",
"8. c #92496F",
"9. c #8E4F74",
"0. c #9A4370",
"q. c #994470",
"w. c #974B73",
"e. c #904D73",
"r. c #944C74",
"t. c #954C74",
"y. c #944D74",
"u. c #964D75",
"i. c #9B4974",
"p. c #9A4A74",
"a. c #9B4B74",
"s. c #9F4B75",
"d. c #815272",
"f. c #875274",
"g. c #875375",
"h. c #815574",
"j. c #855476",
"k. c #885072",
"l. c #895173",
"z. c #8C5073",
"x. c #8D5074",
"c. c #8F5175",
"v. c #A54775",
"b. c #A84574",
"n. c #AB4776",
"m. c #A14A75",
"M. c #A54875",
"N. c #A94876",
"B. c #5F6D82",
"V. c #4E7782",
"C. c #527382",
"Z. c #557685",
"A. c #577685",
"S. c #5A7586",
"D. c #5D7687",
"F. c #606C81",
"G. c #666D82",
"H. c #6C6F87",
"J. c #756A83",
"K. c #64778A",
"L. c #4E858E",
"P. c #568191",
"I. c #558391",
"U. c #53939C",
"Y. c #56909C",
"T. c #54939C",
"R. c #57939E",
"E. c #57929F",
"W. c #688195",
"Q. c #5597A1",
"!. c #559BA5",
"~. c #5A9BA5",
"^. c #589DA8",
"/. c #55A4AB",
"(. c #54A5AC",
"). c #52ABB2",
"_. c #57ABB2",
"`. c #59ADB5",
"'. c #58AFB5",
"]. c #58B0B7",
"[. c #58B3B9",
"{. c #58B7BD",
"}. c #5DB7BE",
"|. c #59B8BE",
" X c #5BBABF",
".X c #5ABBC0",
"XX c #5FBBC0",
"oX c #5DC0C5",
"OX c #5DC4C9",
"+X c #5FC9CD",
"@X c #5CD6D6",
"#X c #60C9CD",
"$X c None",
/* pixels */
"$X$X$X$X$X: 1 0 0 2 ; $X$X$X$X$X",
"$X$X$X@ 5 e P 3.5.J F % # $X$X$X",
"$X$X& w q.N.a.u.x.9.2.!.h O $X$X",
"$X& w b.v.a.u.x.l.1.{.+X=.a # $X",
"$X5 0.v.a.t.9.l.d.G.P.].%.+.2 $X",
"= r b.a.t.e.l.h.) Q R. X&.#.d 3 ",
"1 L m.w.8._ / ~ ^ *.'.(.] @.l u ",
"9 4.a.j.H.}.|.P.W A..XV...>.n i ",
"9 6.7.W.@X'.S.$.H ~.U.` o.-.v i ",
"3 K g.^.T.E ! U A.[.X.o.-.V z u ",
"* w J.F.T ( U C.OXL.| -.V S f 6 ",
"$X5 B.K.T E C.oX(.' -.N Z m 1 $X",
"$X$ p Y.D.Q.+X_.| { N A C t o $X",
"$X$X. j ).XXT.X.} ,.D M t O $X$X",
"$X$X$Xo - s k c b z g 1 O $X$X$X",
"$X$X$X$X$X3 u i i 0 6 $X$X$X$X$X"
};
