/* XPM */
static char *_527446396883[] = {
/* columns rows colors chars-per-pixel */
"32 32 162 2 ",
"   c #0F3D5C",
".  c #143B5A",
"X  c #483B5E",
"o  c #503C5F",
"O  c #13415F",
"+  c #0B4662",
"@  c #144663",
"#  c #1C4664",
"$  c #164A67",
"%  c #1B4865",
"&  c #17546F",
"*  c #224764",
"=  c #2D4665",
"-  c #244866",
";  c #2E4D6B",
":  c #334565",
">  c #3B4666",
",  c #3A4867",
"<  c #444667",
"1  c #4E4567",
"2  c #484868",
"3  c #534366",
"4  c #544668",
"5  c #584568",
"6  c #52496A",
"7  c #65466A",
"8  c #6D466A",
"9  c #64486A",
"0  c #6A486B",
"q  c #7F486C",
"w  c #715678",
"e  c #A73B65",
"r  c #B63F67",
"t  c #BC3966",
"y  c #CF3A67",
"u  c #C53F6A",
"i  c #CB3C69",
"p  c #D53966",
"a  c #DC3867",
"s  c #D73C6A",
"d  c #DD3D6B",
"f  c #D33462",
"g  c #E63666",
"h  c #E43867",
"j  c #E23C6A",
"k  c #EC3B6A",
"l  c #EC3465",
"z  c #80456B",
"x  c #8D466C",
"c  c #8A4A6B",
"v  c #93456C",
"b  c #9B456C",
"n  c #8D4C71",
"m  c #9C4B71",
"M  c #8C597C",
"N  c #835A7C",
"B  c #97557A",
"V  c #9F5379",
"C  c #995878",
"Z  c #915C7C",
"A  c #A5456D",
"S  c #AD446E",
"D  c #A4486F",
"F  c #B3456E",
"G  c #BB446E",
"H  c #A64C73",
"J  c #AC4D75",
"K  c #B84670",
"L  c #B34B73",
"P  c #BA4971",
"I  c #A75077",
"U  c #AC5077",
"Y  c #AD5278",
"T  c #A75879",
"R  c #C3436E",
"E  c #CC436F",
"W  c #D6436F",
"Q  c #DB426F",
"!  c #CC4570",
"~  c #D54470",
"^  c #DC4470",
"/  c #E2416E",
"(  c #E24370",
")  c #5A7C96",
"_  c #786983",
"`  c #7E6D8C",
"'  c #75728F",
"]  c #7B718F",
"[  c #76788F",
"{  c #7B7794",
"}  c #7E7B97",
"|  c #7B7C98",
" . c #9B5E82",
".. c #8E6485",
"X. c #8F6788",
"o. c #856C8C",
"O. c #906788",
"+. c #926485",
"@. c #817894",
"#. c #847592",
"$. c #32A0B0",
"%. c #32ADBA",
"&. c #6A849D",
"*. c #74859D",
"=. c #5D8CA1",
"-. c #5B91A7",
";. c #5D95AA",
":. c #5B9AAD",
">. c #5A9FB2",
",. c #698CA2",
"<. c #658CA3",
"1. c #728EA5",
"2. c #6397AC",
"3. c #6894AA",
"4. c #619BAF",
"5. c #7691A8",
"6. c #43A1B2",
"7. c #4EA9B9",
"8. c #54A2B4",
"9. c #55AAB9",
"0. c #3DBEC4",
"q. c #42B5C2",
"w. c #4BB1C0",
"e. c #42BBC7",
"r. c #4DBDC9",
"t. c #3EC3CB",
"y. c #39C6D0",
"u. c #3BCDD5",
"i. c #36D0D7",
"p. c #3DD0D7",
"a. c #3DD4DB",
"s. c #38DEE3",
"d. c #2CE3E6",
"f. c #2EE8E7",
"g. c #33E3E7",
"h. c #35E7EA",
"j. c #3FE6E9",
"k. c #3CEBED",
"l. c #3AEDF0",
"z. c #3DF3F5",
"x. c #3AF7F8",
"c. c #36FFFD",
"v. c #3DFDFD",
"b. c #41C4CB",
"n. c #4FC3CD",
"m. c #44C6D0",
"M. c #40CDD5",
"N. c #4BCBD4",
"B. c #40D0D7",
"V. c #42D3DB",
"C. c #44DBE1",
"Z. c #48DBE2",
"A. c #41E2E6",
"S. c #43EAED",
"D. c #45EEF1",
"F. c #42F3F4",
"G. c #49F5F7",
"H. c #46F6F8",
"J. c #48F7F8",
"K. c #44FCFC",
"L. c #48FBFB",
"P. c None",
/* pixels */
"P.P.P.P.P.P.P.P.P.P.P.P.@ @ @ @ @ @ @ @ P.P.P.P.P.P.P.P.P.P.P.P.",
"P.P.P.P.P.P.P.P.P.P.@ @ + + @ @ @ @ + + + @ @ P.P.P.P.P.P.P.P.P.",
"P.P.P.P.P.P.P.P.@ + + : 7 x A F F S v 0 : @ + @ P.P.P.P.P.P.P.P.",
"P.P.P.P.P.P.@ @ + < b ~ ( ( Q Q Q Q ( / W A 5 . @ @ P.P.P.P.P.P.",
"P.P.P.P.P.@ + * x ^ ( W W W ~ W W W W W Q h +.$.& @ @ P.P.P.P.P.",
"P.P.P.P.@ + : G ( W W W W W W W W W ~ ^ p &.l.K.=.X + @ P.P.P.P.",
"P.P.P.@ + : E ^ W W W W W W W W W W W y -.v.H.v.1.h 1 + @ P.P.P.",
"P.P.P.@ * G ^ W W W W W W W W W W W j ] c.H.S.v.} j W > @ @ P.P.",
"P.P.@ + v ( W W W W W W W W W W W W i t.k.) V.v.X.j / G @ @ P.P.",
"P.P.+ 2 ^ W W W W W W W W W W W W W W O.L I z.k.J d W / 8 + @ P.",
"P.@ + A ( W W W W W W W W W W W W W Q R T ,.K.V.Z W W Q R # @ P.",
"P.@ : ~ W W W W W W W W W W W W W W / [ f.l.J.J.t.R W W ^ 5 + P.",
"@ + 8 ( W W W W W W ^ j W W ~ W W W W G c B.F.w G W W W ( v + @ ",
"@ + v ( W W W W W Q R ` J p a Q W / C t.n.F.v.t.P Q Q W ^ F @ @ ",
"@ @ S ^ W W ^ d h f -.c.a.r.2.L Q Q L =.S.K.9.*.P Q W W W E * @ ",
"@ @ G ^ W W s o.<.8.F.H.L.K.d.q.R Q Q Z x.V.G h Q W W W W E = + ",
"@ @ G ^ ~ ^ u p.v.K.L.S.i.=.n 6.J / R n.v.*.h W W W W W Q ! - @ ",
"@ @ F ^ ~ ^ r V.L.L.N.e.n P k w P h } c.V.R W W W W W W Q R % @ ",
"@ + b ( ~ a ,.v.D.h.V G ! / ~ W / G V.c.#.d W W W W W W ^ S @ @ ",
"@ + 8 ( ^ F u.m.7.N L / Q ~ Q E G 4.v.n.i Q W W W W W W ( c + @ ",
"P.@ > ^ j @.w.t H j W W W W d m i.F.z.C j ~ W W W W W W ( 6 + P.",
"P.@ + S h ;.*.h Q ^ W W W j I e.K.K.>.a ^ ~ W W W W W ^ P # @ P.",
"P.@ + 4 j 9.3.a W ^ W Q j J &.v.K.a.L Q W W W W W W ~ ( 0 + @ P.",
"P.P.@ + e 5.M.i W ^ j J H :.v.L.k.X.a W W W W W ~ W ( F @ @ P.P.",
"P.P.@ + : B j.o.l L H ' h.S.H.x.{ h W W W W W W W Q W , + @ P.P.",
"P.P.P.% + X 8.A.M -.s.Z.L.L.z.*.a Q W W W W W W ^ ^ 6 + @ P.P.P.",
"P.P.P.P.@ + % y.K.K.L.K.v.V.` a W W W W W W W Q ~ 1 + $ P.P.P.P.",
"P.P.P.P.P.@ @ $ %.A.Z.r.*.G d W W W W W W Q / L , + @ P.P.P.P.P.",
"P.P.P.P.P.P.@ @   ; m p k / Q W Q Q / ( Q P 9 @ + @ P.P.P.P.P.P.",
"P.P.P.P.P.P.P.@ @ @ # 1 z S R R R P D q 2 % + @ @ P.P.P.P.P.P.P.",
"P.P.P.P.P.P.P.P.P.@ @ + + @ @ - - % + + + @ @ P.P.P.P.P.P.P.P.P.",
"P.P.P.P.P.P.P.P.P.P.P.P.@ @ @ @ @ @ @ @ P.P.P.P.P.P.P.P.P.P.P.P."
};
