/* XPM */
static char *d865fc705611435fc4fc927d98c75c19[] = {
/* columns rows colors chars-per-pixel */
"32 32 153 2 ",
"   c #143046",
".  c #15364B",
"X  c #19364C",
"o  c #14384C",
"O  c #19384D",
"+  c #1C3D51",
"@  c #27364E",
"#  c #233A50",
"$  c #2C3C53",
"%  c #333B54",
"&  c #413C58",
"*  c #563F5E",
"=  c #783F66",
"-  c #1D4354",
";  c #1F4A58",
":  c #234155",
">  c #2A4558",
",  c #204958",
"<  c #2D495D",
"1  c #374058",
"2  c #304E5E",
"3  c #26545F",
"4  c #2E5F67",
"5  c #3E5263",
"6  c #355C67",
"7  c #395A67",
"8  c #276368",
"9  c #2B6469",
"0  c #34676C",
"q  c #3B646D",
"w  c #366A6E",
"e  c #39696E",
"r  c #2C7272",
"t  c #357675",
"y  c #3C7375",
"u  c #337A77",
"i  c #3A7877",
"p  c #347B78",
"a  c #3A7878",
"s  c #4C435E",
"d  c #5C4661",
"f  c #544F67",
"g  c #455467",
"h  c #4F5066",
"j  c #425D6C",
"k  c #4C5D6D",
"l  c #56556D",
"z  c #5B546A",
"x  c #545C6D",
"c  c #5F5B6D",
"v  c #575C70",
"b  c #5C5E71",
"n  c #664766",
"m  c #6A4566",
"M  c #6D4866",
"N  c #674E6A",
"B  c #6C4D6A",
"V  c #724266",
"C  c #7A4267",
"Z  c #7D466B",
"A  c #734C6B",
"S  c #7C4E6E",
"D  c #64536C",
"F  c #6B546E",
"G  c #66596E",
"H  c #75536E",
"J  c #665670",
"K  c #6F5471",
"L  c #645C71",
"P  c #6C5D73",
"I  c #745772",
"U  c #7D5673",
"Y  c #735B73",
"T  c #785873",
"R  c #46606C",
"E  c #4C626E",
"W  c #426571",
"Q  c #4C6472",
"!  c #456E74",
"~  c #4B6C74",
"^  c #436778",
"/  c #446F7C",
"(  c #4B6D7E",
")  c #546474",
"_  c #5A6473",
"`  c #536A75",
"'  c #5A6876",
"]  c #5A6579",
"[  c #526C7D",
"{  c #596A7F",
"}  c #427175",
"|  c #4B7177",
" . c #45717D",
".. c #646274",
"X. c #696174",
"o. c #60667E",
"O. c #83446B",
"+. c #8B476C",
"@. c #834A6D",
"#. c #97426E",
"$. c #98426E",
"%. c #8D4E72",
"&. c #9E4772",
"*. c #944C72",
"=. c #9A4972",
"-. c #845373",
";. c #8A5173",
":. c #935176",
">. c #A14572",
",. c #AB4574",
"<. c #A34974",
"1. c #3D7E8B",
"2. c #596B80",
"3. c #4B7583",
"4. c #467B87",
"5. c #457F8C",
"6. c #557485",
"7. c #5B7286",
"8. c #537F8F",
"9. c #5E7F90",
"0. c #3E838F",
"q. c #4A828F",
"w. c #4C8492",
"e. c #478F97",
"r. c #4D8B96",
"t. c #4D8C98",
"y. c #548392",
"u. c #528E9A",
"i. c #4D929C",
"p. c #53919E",
"a. c #4D9AA3",
"s. c #4E9FA8",
"d. c #529BA5",
"f. c #4FA5AC",
"g. c #52A4AC",
"h. c #51A8AF",
"j. c #4EABB2",
"k. c #55ABB2",
"l. c #55B1B7",
"z. c #55B4BA",
"x. c #59B5BB",
"c. c #57B8BD",
"v. c #5BB8BE",
"b. c #5CBEC3",
"n. c #5DC1C5",
"m. c #5EC5C9",
"M. c #5FC8CB",
"N. c #5DCED0",
"B. c #60C6CA",
"V. c #63CACE",
"C. c #64CED1",
"Z. c #64D2D4",
"A. c None",
/* pixels */
"A.A.A.A.A.A.A.A.A.A.A.A.: : : : : : : : A.A.A.A.A.A.A.A.A.A.A.A.",
"A.A.A.A.A.A.A.A.A.X X o o o X X X o o o X X X A.A.A.A.A.A.A.A.A.",
"A.A.A.A.A.A.A.A.X o o % * V Z @.@.A n s $ o o X A.A.A.A.A.A.A.A.",
"A.A.A.A.A.A.O o o & Z >.>.<.=.=.*.*.:.;.-.N %   O O A.A.A.A.A.A.",
"A.A.A.A.A.O o # C ,.,.&.=.$.*.*.%.;.;.-.-.U 2.0.+ . O A.A.A.A.A.",
"A.A.A.A.O o % #.,.>.&.=.=.*.*.%.;.;.-.-.A 8.M.Z.( $ X X A.A.A.A.",
"A.A.A.O . % &.,.>.&.=.=.*.*.%.%.;.-.-.A t.N.V.B.6.G : X O A.A.A.",
"A.A.A.o @ $.,.>.>.&.=.*.*.%.;.;.-.-.S 6.Z.b.b.M.[ P v + X A.A.A.",
"A.A.O o = ,.>.>.=.=.*.*.*.;.;.;.-.U B h.z.^ x.b.) L ..g O O A.A.",
"A.X o & ,.>.>.>.=.=.*.*.%.;.-.-.U U I ] D ) V.l.x .._ ' > o o A.",
"A.. o O.,.=.$.=.*.*.%.%.;.-.-.U U T T L ' r.C.h.Q _ ) ` j X X A.",
"A.o % >.>.=.=.=.*.*.%.;.;.-.U U U Y I 3.c.n.V.n.e.x ` ` ~ : . A.",
": o * ,.=.=.=.*.*.%.%.%.-.-.U U Y Y P f g x.b.R E ) ` ~ | 2 o < ",
"+ o V <.=.=.*.*.%.%.H { F A H Y Y Y ) h.k.V.B.i.E ` ` ~ | 6   < ",
": X O.<.=.*.*.*.+.C y.N.l.g.y.J Y P _ 4.n.B.q.3.Q ` ~ ! } q . < ",
": X O.=.*.*.%.o.9.p.M.V.C.m.j.i.G P J 3.C.s.k ) ~ ~ ~ } } e . < ",
": O @.=.%.*.S k.Z.C.C.b.s.3.h 5.b X.x l.V./ ) ` ~ ! ! } y w . < ",
": o Z =.*.%.A k.C.B.d.t.f J Y g L c q.Z.a.k ` ~ ~ ! ! y y 0 . < ",
": X m *.:.@.8.C.b.h.z F K P P ..P Q b.m.! ) ~ ~ ! } y y i 4   < ",
": o s :.;.K g.a.w.l P Y P P ..v k i.Z.e.R ~ ~ ! } y y y p 3 . < ",
"A.o $ ;.%.2.t.M J T Y P P ..L j l.V.x.W ~ ~ ! ! y y t t t - . A.",
"A.X X B %.y.7.U T Y P P ..L k h.V.V.4.Q ~ ! ! y y y t u 9 X X A.",
"A.X o % @.p.y.H Y K P P L E w.V.C.s.R ~ ~ } } y y t u u ; X X A.",
"A.A.O o d 9.g.F X.P P ) k i.V.C.l.W ~ ! } } y y t t u 8 O O A.A.",
"A.A.A.o # l b.[ K v x 3.b.m.C.b.W ~ ~ ! } } t t t u r O O A.A.A.",
"A.A.A.O o @ q.v.Q r.c.v.V.C.c./ Q ! ! } y y t t u r - X O A.A.A.",
"A.A.A.A.X X X a.Z.V.C.C.m.s.W Q ! ! } y y y t p r - X O A.A.A.A.",
"A.A.A.A.A.X X X 5.k.k.i. .R ~ ~ ! } y y t t u 8 + . X A.A.A.A.A.",
"A.A.A.A.A.A.O X   # 5 E ` ` | | } } i i t 9 , X X O A.A.A.A.A.A.",
"A.A.A.A.A.A.A.A.O X O : 2 7 q q e w 4 3 - X X X A.A.A.A.A.A.A.A.",
"A.A.A.A.A.A.A.A.A.. . .   o . . X X .   . X . A.A.A.A.A.A.A.A.A.",
"A.A.A.A.A.A.A.A.A.A.A.A.< < < < < < < < A.A.A.A.A.A.A.A.A.A.A.A."
};
